<?xml version="1.0" encoding="UTF-8" ?>
<svg version="1.1" width="32" height="32" xmlns="http://www.w3.org/2000/svg" shape-rendering="crispEdges">
<rect x="11" y="0" width="1" height="1" fill="#24292E" />
<rect x="12" y="0" width="1" height="1" fill="#24292E" />
<rect x="13" y="0" width="1" height="1" fill="#24292E" />
<rect x="14" y="0" width="1" height="1" fill="#24292E" />
<rect x="15" y="0" width="1" height="1" fill="#24292E" />
<rect x="16" y="0" width="1" height="1" fill="#24292E" />
<rect x="17" y="0" width="1" height="1" fill="#24292E" />
<rect x="18" y="0" width="1" height="1" fill="#24292E" />
<rect x="19" y="0" width="1" height="1" fill="#24292E" />
<rect x="20" y="0" width="1" height="1" fill="#24292E" />
<rect x="9" y="1" width="1" height="1" fill="#24292E" />
<rect x="10" y="1" width="1" height="1" fill="#24292E" />
<rect x="11" y="1" width="1" height="1" fill="#24292E" />
<rect x="12" y="1" width="1" height="1" fill="#24292E" />
<rect x="13" y="1" width="1" height="1" fill="#24292E" />
<rect x="14" y="1" width="1" height="1" fill="#24292E" />
<rect x="15" y="1" width="1" height="1" fill="#24292E" />
<rect x="16" y="1" width="1" height="1" fill="#24292E" />
<rect x="17" y="1" width="1" height="1" fill="#24292E" />
<rect x="18" y="1" width="1" height="1" fill="#24292E" />
<rect x="19" y="1" width="1" height="1" fill="#24292E" />
<rect x="20" y="1" width="1" height="1" fill="#24292E" />
<rect x="21" y="1" width="1" height="1" fill="#24292E" />
<rect x="22" y="1" width="1" height="1" fill="#24292E" />
<rect x="7" y="2" width="1" height="1" fill="#24292E" />
<rect x="8" y="2" width="1" height="1" fill="#24292E" />
<rect x="9" y="2" width="1" height="1" fill="#24292E" />
<rect x="10" y="2" width="1" height="1" fill="#24292E" />
<rect x="11" y="2" width="1" height="1" fill="#24292E" />
<rect x="12" y="2" width="1" height="1" fill="#24292E" />
<rect x="13" y="2" width="1" height="1" fill="#24292E" />
<rect x="14" y="2" width="1" height="1" fill="#24292E" />
<rect x="15" y="2" width="1" height="1" fill="#24292E" />
<rect x="16" y="2" width="1" height="1" fill="#24292E" />
<rect x="17" y="2" width="1" height="1" fill="#24292E" />
<rect x="18" y="2" width="1" height="1" fill="#24292E" />
<rect x="19" y="2" width="1" height="1" fill="#24292E" />
<rect x="20" y="2" width="1" height="1" fill="#24292E" />
<rect x="21" y="2" width="1" height="1" fill="#24292E" />
<rect x="22" y="2" width="1" height="1" fill="#24292E" />
<rect x="23" y="2" width="1" height="1" fill="#24292E" />
<rect x="24" y="2" width="1" height="1" fill="#24292E" />
<rect x="6" y="3" width="1" height="1" fill="#24292E" />
<rect x="7" y="3" width="1" height="1" fill="#24292E" />
<rect x="8" y="3" width="1" height="1" fill="#24292E" />
<rect x="9" y="3" width="1" height="1" fill="#24292E" />
<rect x="10" y="3" width="1" height="1" fill="#24292E" />
<rect x="11" y="3" width="1" height="1" fill="#24292E" />
<rect x="12" y="3" width="1" height="1" fill="#24292E" />
<rect x="13" y="3" width="1" height="1" fill="#24292E" />
<rect x="14" y="3" width="1" height="1" fill="#24292E" />
<rect x="15" y="3" width="1" height="1" fill="#24292E" />
<rect x="16" y="3" width="1" height="1" fill="#24292E" />
<rect x="17" y="3" width="1" height="1" fill="#24292E" />
<rect x="18" y="3" width="1" height="1" fill="#24292E" />
<rect x="19" y="3" width="1" height="1" fill="#24292E" />
<rect x="20" y="3" width="1" height="1" fill="#24292E" />
<rect x="21" y="3" width="1" height="1" fill="#24292E" />
<rect x="22" y="3" width="1" height="1" fill="#24292E" />
<rect x="23" y="3" width="1" height="1" fill="#24292E" />
<rect x="24" y="3" width="1" height="1" fill="#24292E" />
<rect x="25" y="3" width="1" height="1" fill="#24292E" />
<rect x="5" y="4" width="1" height="1" fill="#24292E" />
<rect x="6" y="4" width="1" height="1" fill="#24292E" />
<rect x="7" y="4" width="1" height="1" fill="#24292E" />
<rect x="8" y="4" width="1" height="1" fill="#24292E" />
<rect x="9" y="4" width="1" height="1" fill="#24292E" />
<rect x="10" y="4" width="1" height="1" fill="#24292E" />
<rect x="11" y="4" width="1" height="1" fill="#24292E" />
<rect x="12" y="4" width="1" height="1" fill="#24292E" />
<rect x="13" y="4" width="1" height="1" fill="#24292E" />
<rect x="14" y="4" width="1" height="1" fill="#24292E" />
<rect x="15" y="4" width="1" height="1" fill="#24292E" />
<rect x="16" y="4" width="1" height="1" fill="#24292E" />
<rect x="17" y="4" width="1" height="1" fill="#24292E" />
<rect x="18" y="4" width="1" height="1" fill="#24292E" />
<rect x="19" y="4" width="1" height="1" fill="#24292E" />
<rect x="20" y="4" width="1" height="1" fill="#24292E" />
<rect x="21" y="4" width="1" height="1" fill="#24292E" />
<rect x="22" y="4" width="1" height="1" fill="#24292E" />
<rect x="23" y="4" width="1" height="1" fill="#24292E" />
<rect x="24" y="4" width="1" height="1" fill="#24292E" />
<rect x="25" y="4" width="1" height="1" fill="#24292E" />
<rect x="26" y="4" width="1" height="1" fill="#24292E" />
<rect x="4" y="5" width="1" height="1" fill="#24292E" />
<rect x="5" y="5" width="1" height="1" fill="#24292E" />
<rect x="6" y="5" width="1" height="1" fill="#24292E" />
<rect x="7" y="5" width="1" height="1" fill="#24292E" />
<rect x="8" y="5" width="1" height="1" fill="#24292E" />
<rect x="9" y="5" width="1" height="1" fill="#24292E" />
<rect x="10" y="5" width="1" height="1" fill="#24292E" />
<rect x="11" y="5" width="1" height="1" fill="#24292E" />
<rect x="12" y="5" width="1" height="1" fill="#24292E" />
<rect x="13" y="5" width="1" height="1" fill="#24292E" />
<rect x="14" y="5" width="1" height="1" fill="#24292E" />
<rect x="15" y="5" width="1" height="1" fill="#24292E" />
<rect x="16" y="5" width="1" height="1" fill="#24292E" />
<rect x="17" y="5" width="1" height="1" fill="#24292E" />
<rect x="18" y="5" width="1" height="1" fill="#24292E" />
<rect x="19" y="5" width="1" height="1" fill="#24292E" />
<rect x="20" y="5" width="1" height="1" fill="#24292E" />
<rect x="21" y="5" width="1" height="1" fill="#24292E" />
<rect x="22" y="5" width="1" height="1" fill="#24292E" />
<rect x="23" y="5" width="1" height="1" fill="#24292E" />
<rect x="24" y="5" width="1" height="1" fill="#24292E" />
<rect x="25" y="5" width="1" height="1" fill="#24292E" />
<rect x="26" y="5" width="1" height="1" fill="#24292E" />
<rect x="27" y="5" width="1" height="1" fill="#24292E" />
<rect x="3" y="6" width="1" height="1" fill="#24292E" />
<rect x="4" y="6" width="1" height="1" fill="#24292E" />
<rect x="5" y="6" width="1" height="1" fill="#24292E" />
<rect x="6" y="6" width="1" height="1" fill="#24292E" />
<rect x="7" y="6" width="1" height="1" fill="#24292E" />
<rect x="10" y="6" width="1" height="1" fill="#24292E" />
<rect x="11" y="6" width="1" height="1" fill="#24292E" />
<rect x="12" y="6" width="1" height="1" fill="#24292E" />
<rect x="13" y="6" width="1" height="1" fill="#24292E" />
<rect x="14" y="6" width="1" height="1" fill="#24292E" />
<rect x="15" y="6" width="1" height="1" fill="#24292E" />
<rect x="16" y="6" width="1" height="1" fill="#24292E" />
<rect x="17" y="6" width="1" height="1" fill="#24292E" />
<rect x="18" y="6" width="1" height="1" fill="#24292E" />
<rect x="19" y="6" width="1" height="1" fill="#24292E" />
<rect x="20" y="6" width="1" height="1" fill="#24292E" />
<rect x="21" y="6" width="1" height="1" fill="#24292E" />
<rect x="24" y="6" width="1" height="1" fill="#24292E" />
<rect x="25" y="6" width="1" height="1" fill="#24292E" />
<rect x="26" y="6" width="1" height="1" fill="#24292E" />
<rect x="27" y="6" width="1" height="1" fill="#24292E" />
<rect x="28" y="6" width="1" height="1" fill="#24292E" />
<rect x="2" y="7" width="1" height="1" fill="#24292E" />
<rect x="3" y="7" width="1" height="1" fill="#24292E" />
<rect x="4" y="7" width="1" height="1" fill="#24292E" />
<rect x="5" y="7" width="1" height="1" fill="#24292E" />
<rect x="6" y="7" width="1" height="1" fill="#24292E" />
<rect x="10" y="7" width="1" height="1" fill="#24292E" />
<rect x="11" y="7" width="1" height="1" fill="#24292E" />
<rect x="12" y="7" width="1" height="1" fill="#24292E" />
<rect x="13" y="7" width="1" height="1" fill="#24292E" />
<rect x="18" y="7" width="1" height="1" fill="#24292E" />
<rect x="19" y="7" width="1" height="1" fill="#24292E" />
<rect x="20" y="7" width="1" height="1" fill="#24292E" />
<rect x="21" y="7" width="1" height="1" fill="#24292E" />
<rect x="25" y="7" width="1" height="1" fill="#24292E" />
<rect x="26" y="7" width="1" height="1" fill="#24292E" />
<rect x="27" y="7" width="1" height="1" fill="#24292E" />
<rect x="28" y="7" width="1" height="1" fill="#24292E" />
<rect x="29" y="7" width="1" height="1" fill="#24292E" />
<rect x="2" y="8" width="1" height="1" fill="#24292E" />
<rect x="3" y="8" width="1" height="1" fill="#24292E" />
<rect x="4" y="8" width="1" height="1" fill="#24292E" />
<rect x="5" y="8" width="1" height="1" fill="#24292E" />
<rect x="6" y="8" width="1" height="1" fill="#24292E" />
<rect x="11" y="8" width="1" height="1" fill="#24292E" />
<rect x="12" y="8" width="1" height="1" fill="#24292E" />
<rect x="19" y="8" width="1" height="1" fill="#24292E" />
<rect x="20" y="8" width="1" height="1" fill="#24292E" />
<rect x="25" y="8" width="1" height="1" fill="#24292E" />
<rect x="26" y="8" width="1" height="1" fill="#24292E" />
<rect x="27" y="8" width="1" height="1" fill="#24292E" />
<rect x="28" y="8" width="1" height="1" fill="#24292E" />
<rect x="29" y="8" width="1" height="1" fill="#24292E" />
<rect x="1" y="9" width="1" height="1" fill="#24292E" />
<rect x="2" y="9" width="1" height="1" fill="#24292E" />
<rect x="3" y="9" width="1" height="1" fill="#24292E" />
<rect x="4" y="9" width="1" height="1" fill="#24292E" />
<rect x="5" y="9" width="1" height="1" fill="#24292E" />
<rect x="6" y="9" width="1" height="1" fill="#24292E" />
<rect x="25" y="9" width="1" height="1" fill="#24292E" />
<rect x="26" y="9" width="1" height="1" fill="#24292E" />
<rect x="27" y="9" width="1" height="1" fill="#24292E" />
<rect x="28" y="9" width="1" height="1" fill="#24292E" />
<rect x="29" y="9" width="1" height="1" fill="#24292E" />
<rect x="30" y="9" width="1" height="1" fill="#24292E" />
<rect x="1" y="10" width="1" height="1" fill="#24292E" />
<rect x="2" y="10" width="1" height="1" fill="#24292E" />
<rect x="3" y="10" width="1" height="1" fill="#24292E" />
<rect x="4" y="10" width="1" height="1" fill="#24292E" />
<rect x="5" y="10" width="1" height="1" fill="#24292E" />
<rect x="6" y="10" width="1" height="1" fill="#24292E" />
<rect x="25" y="10" width="1" height="1" fill="#24292E" />
<rect x="26" y="10" width="1" height="1" fill="#24292E" />
<rect x="27" y="10" width="1" height="1" fill="#24292E" />
<rect x="28" y="10" width="1" height="1" fill="#24292E" />
<rect x="29" y="10" width="1" height="1" fill="#24292E" />
<rect x="30" y="10" width="1" height="1" fill="#24292E" />
<rect x="0" y="11" width="1" height="1" fill="#24292E" />
<rect x="1" y="11" width="1" height="1" fill="#24292E" />
<rect x="2" y="11" width="1" height="1" fill="#24292E" />
<rect x="3" y="11" width="1" height="1" fill="#24292E" />
<rect x="4" y="11" width="1" height="1" fill="#24292E" />
<rect x="5" y="11" width="1" height="1" fill="#24292E" />
<rect x="6" y="11" width="1" height="1" fill="#24292E" />
<rect x="25" y="11" width="1" height="1" fill="#24292E" />
<rect x="26" y="11" width="1" height="1" fill="#24292E" />
<rect x="27" y="11" width="1" height="1" fill="#24292E" />
<rect x="28" y="11" width="1" height="1" fill="#24292E" />
<rect x="29" y="11" width="1" height="1" fill="#24292E" />
<rect x="30" y="11" width="1" height="1" fill="#24292E" />
<rect x="31" y="11" width="1" height="1" fill="#24292E" />
<rect x="0" y="12" width="1" height="1" fill="#24292E" />
<rect x="1" y="12" width="1" height="1" fill="#24292E" />
<rect x="2" y="12" width="1" height="1" fill="#24292E" />
<rect x="3" y="12" width="1" height="1" fill="#24292E" />
<rect x="4" y="12" width="1" height="1" fill="#24292E" />
<rect x="5" y="12" width="1" height="1" fill="#24292E" />
<rect x="6" y="12" width="1" height="1" fill="#24292E" />
<rect x="25" y="12" width="1" height="1" fill="#24292E" />
<rect x="26" y="12" width="1" height="1" fill="#24292E" />
<rect x="27" y="12" width="1" height="1" fill="#24292E" />
<rect x="28" y="12" width="1" height="1" fill="#24292E" />
<rect x="29" y="12" width="1" height="1" fill="#24292E" />
<rect x="30" y="12" width="1" height="1" fill="#24292E" />
<rect x="31" y="12" width="1" height="1" fill="#24292E" />
<rect x="0" y="13" width="1" height="1" fill="#24292E" />
<rect x="1" y="13" width="1" height="1" fill="#24292E" />
<rect x="2" y="13" width="1" height="1" fill="#24292E" />
<rect x="3" y="13" width="1" height="1" fill="#24292E" />
<rect x="4" y="13" width="1" height="1" fill="#24292E" />
<rect x="5" y="13" width="1" height="1" fill="#24292E" />
<rect x="26" y="13" width="1" height="1" fill="#24292E" />
<rect x="27" y="13" width="1" height="1" fill="#24292E" />
<rect x="28" y="13" width="1" height="1" fill="#24292E" />
<rect x="29" y="13" width="1" height="1" fill="#24292E" />
<rect x="30" y="13" width="1" height="1" fill="#24292E" />
<rect x="31" y="13" width="1" height="1" fill="#24292E" />
<rect x="0" y="14" width="1" height="1" fill="#24292E" />
<rect x="1" y="14" width="1" height="1" fill="#24292E" />
<rect x="2" y="14" width="1" height="1" fill="#24292E" />
<rect x="3" y="14" width="1" height="1" fill="#24292E" />
<rect x="4" y="14" width="1" height="1" fill="#24292E" />
<rect x="27" y="14" width="1" height="1" fill="#24292E" />
<rect x="28" y="14" width="1" height="1" fill="#24292E" />
<rect x="29" y="14" width="1" height="1" fill="#24292E" />
<rect x="30" y="14" width="1" height="1" fill="#24292E" />
<rect x="31" y="14" width="1" height="1" fill="#24292E" />
<rect x="0" y="15" width="1" height="1" fill="#24292E" />
<rect x="1" y="15" width="1" height="1" fill="#24292E" />
<rect x="2" y="15" width="1" height="1" fill="#24292E" />
<rect x="3" y="15" width="1" height="1" fill="#24292E" />
<rect x="4" y="15" width="1" height="1" fill="#24292E" />
<rect x="27" y="15" width="1" height="1" fill="#24292E" />
<rect x="28" y="15" width="1" height="1" fill="#24292E" />
<rect x="29" y="15" width="1" height="1" fill="#24292E" />
<rect x="30" y="15" width="1" height="1" fill="#24292E" />
<rect x="31" y="15" width="1" height="1" fill="#24292E" />
<rect x="0" y="16" width="1" height="1" fill="#24292E" />
<rect x="1" y="16" width="1" height="1" fill="#24292E" />
<rect x="2" y="16" width="1" height="1" fill="#24292E" />
<rect x="3" y="16" width="1" height="1" fill="#24292E" />
<rect x="4" y="16" width="1" height="1" fill="#24292E" />
<rect x="27" y="16" width="1" height="1" fill="#24292E" />
<rect x="28" y="16" width="1" height="1" fill="#24292E" />
<rect x="29" y="16" width="1" height="1" fill="#24292E" />
<rect x="30" y="16" width="1" height="1" fill="#24292E" />
<rect x="31" y="16" width="1" height="1" fill="#24292E" />
<rect x="0" y="17" width="1" height="1" fill="#24292E" />
<rect x="1" y="17" width="1" height="1" fill="#24292E" />
<rect x="2" y="17" width="1" height="1" fill="#24292E" />
<rect x="3" y="17" width="1" height="1" fill="#24292E" />
<rect x="4" y="17" width="1" height="1" fill="#24292E" />
<rect x="5" y="17" width="1" height="1" fill="#24292E" />
<rect x="26" y="17" width="1" height="1" fill="#24292E" />
<rect x="27" y="17" width="1" height="1" fill="#24292E" />
<rect x="28" y="17" width="1" height="1" fill="#24292E" />
<rect x="29" y="17" width="1" height="1" fill="#24292E" />
<rect x="30" y="17" width="1" height="1" fill="#24292E" />
<rect x="31" y="17" width="1" height="1" fill="#24292E" />
<rect x="0" y="18" width="1" height="1" fill="#24292E" />
<rect x="1" y="18" width="1" height="1" fill="#24292E" />
<rect x="2" y="18" width="1" height="1" fill="#24292E" />
<rect x="3" y="18" width="1" height="1" fill="#24292E" />
<rect x="4" y="18" width="1" height="1" fill="#24292E" />
<rect x="5" y="18" width="1" height="1" fill="#24292E" />
<rect x="26" y="18" width="1" height="1" fill="#24292E" />
<rect x="27" y="18" width="1" height="1" fill="#24292E" />
<rect x="28" y="18" width="1" height="1" fill="#24292E" />
<rect x="29" y="18" width="1" height="1" fill="#24292E" />
<rect x="30" y="18" width="1" height="1" fill="#24292E" />
<rect x="31" y="18" width="1" height="1" fill="#24292E" />
<rect x="0" y="19" width="1" height="1" fill="#24292E" />
<rect x="1" y="19" width="1" height="1" fill="#24292E" />
<rect x="2" y="19" width="1" height="1" fill="#24292E" />
<rect x="3" y="19" width="1" height="1" fill="#24292E" />
<rect x="4" y="19" width="1" height="1" fill="#24292E" />
<rect x="5" y="19" width="1" height="1" fill="#24292E" />
<rect x="6" y="19" width="1" height="1" fill="#24292E" />
<rect x="25" y="19" width="1" height="1" fill="#24292E" />
<rect x="26" y="19" width="1" height="1" fill="#24292E" />
<rect x="27" y="19" width="1" height="1" fill="#24292E" />
<rect x="28" y="19" width="1" height="1" fill="#24292E" />
<rect x="29" y="19" width="1" height="1" fill="#24292E" />
<rect x="30" y="19" width="1" height="1" fill="#24292E" />
<rect x="31" y="19" width="1" height="1" fill="#24292E" />
<rect x="0" y="20" width="1" height="1" fill="#24292E" />
<rect x="1" y="20" width="1" height="1" fill="#24292E" />
<rect x="2" y="20" width="1" height="1" fill="#24292E" />
<rect x="3" y="20" width="1" height="1" fill="#24292E" />
<rect x="4" y="20" width="1" height="1" fill="#24292E" />
<rect x="5" y="20" width="1" height="1" fill="#24292E" />
<rect x="6" y="20" width="1" height="1" fill="#24292E" />
<rect x="7" y="20" width="1" height="1" fill="#24292E" />
<rect x="24" y="20" width="1" height="1" fill="#24292E" />
<rect x="25" y="20" width="1" height="1" fill="#24292E" />
<rect x="26" y="20" width="1" height="1" fill="#24292E" />
<rect x="27" y="20" width="1" height="1" fill="#24292E" />
<rect x="28" y="20" width="1" height="1" fill="#24292E" />
<rect x="29" y="20" width="1" height="1" fill="#24292E" />
<rect x="30" y="20" width="1" height="1" fill="#24292E" />
<rect x="31" y="20" width="1" height="1" fill="#24292E" />
<rect x="0" y="21" width="1" height="1" fill="#24292E" />
<rect x="1" y="21" width="1" height="1" fill="#24292E" />
<rect x="2" y="21" width="1" height="1" fill="#24292E" />
<rect x="3" y="21" width="1" height="1" fill="#24292E" />
<rect x="4" y="21" width="1" height="1" fill="#24292E" />
<rect x="5" y="21" width="1" height="1" fill="#24292E" />
<rect x="6" y="21" width="1" height="1" fill="#24292E" />
<rect x="7" y="21" width="1" height="1" fill="#24292E" />
<rect x="8" y="21" width="1" height="1" fill="#24292E" />
<rect x="23" y="21" width="1" height="1" fill="#24292E" />
<rect x="24" y="21" width="1" height="1" fill="#24292E" />
<rect x="25" y="21" width="1" height="1" fill="#24292E" />
<rect x="26" y="21" width="1" height="1" fill="#24292E" />
<rect x="27" y="21" width="1" height="1" fill="#24292E" />
<rect x="28" y="21" width="1" height="1" fill="#24292E" />
<rect x="29" y="21" width="1" height="1" fill="#24292E" />
<rect x="30" y="21" width="1" height="1" fill="#24292E" />
<rect x="1" y="22" width="1" height="1" fill="#24292E" />
<rect x="2" y="22" width="1" height="1" fill="#24292E" />
<rect x="3" y="22" width="1" height="1" fill="#24292E" />
<rect x="7" y="22" width="1" height="1" fill="#24292E" />
<rect x="8" y="22" width="1" height="1" fill="#24292E" />
<rect x="9" y="22" width="1" height="1" fill="#24292E" />
<rect x="22" y="22" width="1" height="1" fill="#24292E" />
<rect x="23" y="22" width="1" height="1" fill="#24292E" />
<rect x="24" y="22" width="1" height="1" fill="#24292E" />
<rect x="25" y="22" width="1" height="1" fill="#24292E" />
<rect x="26" y="22" width="1" height="1" fill="#24292E" />
<rect x="27" y="22" width="1" height="1" fill="#24292E" />
<rect x="28" y="22" width="1" height="1" fill="#24292E" />
<rect x="29" y="22" width="1" height="1" fill="#24292E" />
<rect x="30" y="22" width="1" height="1" fill="#24292E" />
<rect x="1" y="23" width="1" height="1" fill="#24292E" />
<rect x="2" y="23" width="1" height="1" fill="#24292E" />
<rect x="3" y="23" width="1" height="1" fill="#24292E" />
<rect x="8" y="23" width="1" height="1" fill="#24292E" />
<rect x="9" y="23" width="1" height="1" fill="#24292E" />
<rect x="10" y="23" width="1" height="1" fill="#24292E" />
<rect x="11" y="23" width="1" height="1" fill="#24292E" />
<rect x="20" y="23" width="1" height="1" fill="#24292E" />
<rect x="21" y="23" width="1" height="1" fill="#24292E" />
<rect x="22" y="23" width="1" height="1" fill="#24292E" />
<rect x="23" y="23" width="1" height="1" fill="#24292E" />
<rect x="24" y="23" width="1" height="1" fill="#24292E" />
<rect x="25" y="23" width="1" height="1" fill="#24292E" />
<rect x="26" y="23" width="1" height="1" fill="#24292E" />
<rect x="27" y="23" width="1" height="1" fill="#24292E" />
<rect x="28" y="23" width="1" height="1" fill="#24292E" />
<rect x="29" y="23" width="1" height="1" fill="#24292E" />
<rect x="2" y="24" width="1" height="1" fill="#24292E" />
<rect x="3" y="24" width="1" height="1" fill="#24292E" />
<rect x="4" y="24" width="1" height="1" fill="#24292E" />
<rect x="5" y="24" width="1" height="1" fill="#24292E" opacity="0.937255" />
<rect x="9" y="24" width="1" height="1" fill="#24292E" />
<rect x="10" y="24" width="1" height="1" fill="#24292E" />
<rect x="11" y="24" width="1" height="1" fill="#24292E" />
<rect x="20" y="24" width="1" height="1" fill="#24292E" />
<rect x="21" y="24" width="1" height="1" fill="#24292E" />
<rect x="22" y="24" width="1" height="1" fill="#24292E" />
<rect x="23" y="24" width="1" height="1" fill="#24292E" />
<rect x="24" y="24" width="1" height="1" fill="#24292E" />
<rect x="25" y="24" width="1" height="1" fill="#24292E" />
<rect x="26" y="24" width="1" height="1" fill="#24292E" />
<rect x="27" y="24" width="1" height="1" fill="#24292E" />
<rect x="28" y="24" width="1" height="1" fill="#24292E" />
<rect x="29" y="24" width="1" height="1" fill="#24292E" />
<rect x="3" y="25" width="1" height="1" fill="#24292E" />
<rect x="4" y="25" width="1" height="1" fill="#24292E" />
<rect x="5" y="25" width="1" height="1" fill="#24292E" />
<rect x="20" y="25" width="1" height="1" fill="#24292E" />
<rect x="21" y="25" width="1" height="1" fill="#24292E" />
<rect x="22" y="25" width="1" height="1" fill="#24292E" />
<rect x="23" y="25" width="1" height="1" fill="#24292E" />
<rect x="24" y="25" width="1" height="1" fill="#24292E" />
<rect x="25" y="25" width="1" height="1" fill="#24292E" />
<rect x="26" y="25" width="1" height="1" fill="#24292E" />
<rect x="27" y="25" width="1" height="1" fill="#24292E" />
<rect x="28" y="25" width="1" height="1" fill="#24292E" />
<rect x="4" y="26" width="1" height="1" fill="#24292E" />
<rect x="5" y="26" width="1" height="1" fill="#24292E" />
<rect x="6" y="26" width="1" height="1" fill="#24292E" />
<rect x="20" y="26" width="1" height="1" fill="#24292E" />
<rect x="21" y="26" width="1" height="1" fill="#24292E" />
<rect x="22" y="26" width="1" height="1" fill="#24292E" />
<rect x="23" y="26" width="1" height="1" fill="#24292E" />
<rect x="24" y="26" width="1" height="1" fill="#24292E" />
<rect x="25" y="26" width="1" height="1" fill="#24292E" />
<rect x="26" y="26" width="1" height="1" fill="#24292E" />
<rect x="27" y="26" width="1" height="1" fill="#24292E" />
<rect x="5" y="27" width="1" height="1" fill="#24292E" />
<rect x="6" y="27" width="1" height="1" fill="#24292E" />
<rect x="7" y="27" width="1" height="1" fill="#24292E" />
<rect x="8" y="27" width="1" height="1" fill="#24292E" />
<rect x="9" y="27" width="1" height="1" fill="#24292E" />
<rect x="10" y="27" width="1" height="1" fill="#24292E" />
<rect x="11" y="27" width="1" height="1" fill="#24292E" />
<rect x="20" y="27" width="1" height="1" fill="#24292E" />
<rect x="21" y="27" width="1" height="1" fill="#24292E" />
<rect x="22" y="27" width="1" height="1" fill="#24292E" />
<rect x="23" y="27" width="1" height="1" fill="#24292E" />
<rect x="24" y="27" width="1" height="1" fill="#24292E" />
<rect x="25" y="27" width="1" height="1" fill="#24292E" />
<rect x="26" y="27" width="1" height="1" fill="#24292E" />
<rect x="6" y="28" width="1" height="1" fill="#24292E" />
<rect x="7" y="28" width="1" height="1" fill="#24292E" />
<rect x="8" y="28" width="1" height="1" fill="#24292E" />
<rect x="9" y="28" width="1" height="1" fill="#24292E" />
<rect x="10" y="28" width="1" height="1" fill="#24292E" />
<rect x="11" y="28" width="1" height="1" fill="#24292E" />
<rect x="20" y="28" width="1" height="1" fill="#24292E" />
<rect x="21" y="28" width="1" height="1" fill="#24292E" />
<rect x="22" y="28" width="1" height="1" fill="#24292E" />
<rect x="23" y="28" width="1" height="1" fill="#24292E" />
<rect x="24" y="28" width="1" height="1" fill="#24292E" />
<rect x="25" y="28" width="1" height="1" fill="#24292E" />
<rect x="7" y="29" width="1" height="1" fill="#24292E" />
<rect x="8" y="29" width="1" height="1" fill="#24292E" />
<rect x="9" y="29" width="1" height="1" fill="#24292E" />
<rect x="10" y="29" width="1" height="1" fill="#24292E" />
<rect x="11" y="29" width="1" height="1" fill="#24292E" />
<rect x="20" y="29" width="1" height="1" fill="#24292E" />
<rect x="21" y="29" width="1" height="1" fill="#24292E" />
<rect x="22" y="29" width="1" height="1" fill="#24292E" />
<rect x="23" y="29" width="1" height="1" fill="#24292E" />
<rect x="24" y="29" width="1" height="1" fill="#24292E" />
<rect x="8" y="30" width="1" height="1" fill="#24292E" />
<rect x="9" y="30" width="1" height="1" fill="#24292E" />
<rect x="10" y="30" width="1" height="1" fill="#24292E" />
<rect x="11" y="30" width="1" height="1" fill="#24292E" />
<rect x="20" y="30" width="1" height="1" fill="#24292E" />
<rect x="21" y="30" width="1" height="1" fill="#24292E" />
<rect x="22" y="30" width="1" height="1" fill="#24292E" />
<rect x="23" y="30" width="1" height="1" fill="#24292E" />
</svg>